<svg xmlns="http://www.w3.org/2000/svg" viewBox="0 0 461.21 96.27"><defs><style>.cls-1{fill:#e30613;}.cls-1,.cls-3{fill-rule:evenodd;}.cls-2,.cls-3{fill:#fff;}</style></defs><title>wbz-logo-weiß</title><g id="Ebene_2" data-name="Ebene 2"><g id="Ebene_1-2" data-name="Ebene 1"><path class="cls-1" d="M71,47.42l1,1.52L51.75,62.38v3.08H49.56v-3L29.27,49l1-1.53,19.28,12.8V35.52h2.19V60.19ZM92.78,52c-.16-1.51,0-2.05-.2-3.56-.47.12-1-.25-1.43-.13-.79.2-1.59.89-2.38,1.09l10.73-9.3c0-1.49-2.8-1.1-4.06-1.62-1.84-.75-1.94-.47-3.78-1.22.4-.8-.53-1.73-.13-2.53-.23-.17.12-1-.47-1.88s-1.85-1.29-2.3-1.69c2.71-2.5,5.69-3.23,7.58-6.4.42-1.83,1.4-1.12.9-2.87-1.8-2.18-4.19-4.11-6.16-6.08-1.66.4-3,.45-4.66.85-.55-.64-.9-1.27-1.46-1.91-2.47,0-5.68,2.72-8.35,3.89,1.31-2.29,3.4-4,5.72-6.43-1.91-2.24-3.73-4.7-7.15-3.34-.16-1.19.1-1.48-.06-2.67A3.17,3.17,0,0,0,71.82,6c-2.5,1.48-4.6,3.88-7.17,5-.63.27-1.47-.77-2.1-.5-.16-.84.35-2.13.19-3s-1.48,0-1.64-.89c-.54-.12-.58-1.4-1.12-1.52L54.53,3.92c-.66-.59.7-1.93-.22-2.6A9,9,0,0,0,52.4.52c-1-.21-1.34,1.2-2.27,1.69C50.47.89,50.2-.1,49.2,0,43.47,3,39.09,3.56,36.56,8c-.48-.79-1,.2-1.43-.59a113.28,113.28,0,0,0-16.55,16c-.27.3-1,1-1.29,1.24a2.26,2.26,0,0,0,.42,3c-1,1.08-1.13,1.67-2.14,2.74-.34.36-1.3,2.44.29,3.28,1,1.19,1.31.93,2.9.89C11.42,40.88,5.63,48.55.13,55.86c-.54,1,.72,1.58,1.36,1.81s1.06-.21,1.7,0c-.16.95.16,1.56,0,2.52,2-.08,2.8,1.22,5.89-.31-3.92,3.82-6.51,7.63-7.3,12.38-.12.69-.92,2-.66,2.51,2.24.55,3.26,4,6.56,1.14.53-.46,1,1.33,1.61,1.48-1.12,2.37-2,5.69-1.5,6.06C11,86.12,11,84.76,12.7,84.92c-.44,1.77-1.08,2.37,1.65,5A10.83,10.83,0,0,0,21.11,89c.63,1.43-.87,2.24,1,2.92,1,.33,2.68-1.27,3.2-2,.91-1.37.31-2.2,1.23-3.57.93,1.67,2.06,3.16,3.5,2.63a3.82,3.82,0,0,0,5.56,1.42c-.24.71-.88,1.41-.72,2.15.26,1.18-.32,1.31,1,2.14.79.51,1.88,0,2.83,0,.43.36.59,1.25,1.31,1.46s2-.3,2.42.06c4.47-2,4.28-5,7.43-5.75.77,1.09.35,1.21,1.12,2.3.34.5,2.15.72,2.5,1.22.35-.2,1.06-.12,1.42-.32s.36-.68.72-.88l.45,2.83c.09.57.25.51,1.24.66,1.19.2,1.69-.32,2.63-.82a25,25,0,0,0,3.57-2.32c2.14,0,4.84-1.87,7-1.87.72-1.43.18-1.55.9-3,10.64-3.3,18.7-10.31,25.69-20.63-.3-.26-2.84.18-3.6,0-1-.28-1.4-1.31-2.11-.92-.47-1,0-1.3.24-2.27-.54-.54-1.42-.32-2-.17-.89.24-1.44,1.12-2.33,1.37,2.27-3.5,4.63-6.93,8.58-9.3a3.15,3.15,0,0,0,0-3.58C95.34,52.4,94.11,51.51,92.78,52Z"/><path class="cls-2" d="M401.05,27.82a1.26,1.26,0,0,1-.23-.53L400.9.1h-3.78V26.39c0,1.88.38,2.87,2.49,2.87h4.27V27.9a19.12,19.12,0,0,1-2.83-.08M385.71,13.88a4.67,4.67,0,0,1,.19-.71,9.43,9.43,0,0,1,3-.34c1.58,0,3.17.19,4.76.19v-1.4H385.3c-2.31,0-3.29,1-3.29,3.28l0,11.3c0,1.85.87,3.06,2.8,3.06h9.36V27.9h-7c-.76,0-1.44-.34-1.44-1.17l0-5.71h6.54V19.29h-6.54Zm-12.16,4.57h-6.61V.1H363.2V29.3h3.74v-9h6.61v9h3.74V11.54h-3.74ZM357.16,13h3.55v-1.4H349.83V13h3.59V29.3h3.74ZM341.59,6.1v0a1.92,1.92,0,0,0,1.82,1.77,1.81,1.81,0,0,0,1.77-1.74,1.73,1.73,0,0,0-1.77-1.81A1.82,1.82,0,0,0,341.59,6.1Zm-6.76,0V6a1.92,1.92,0,0,0,1.85,1.77,1.82,1.82,0,0,0,1.82-1.73,1.74,1.74,0,0,0-1.78-1.82A1.89,1.89,0,0,0,334.83,6.07ZM335.06,20h0c0-2.79,1.44-7.51,4.88-7.51,3.73,0,4.83,5.06,4.83,8s-1,7.89-4.8,7.89S335.06,23,335.06,20Zm14.05,0c0-5.1-5-8.88-9.78-8.88-5.36,0-8.65,4.42-8.65,9.49a9.61,9.61,0,0,0,9.25,9.14C345.67,29.79,349.07,25.59,349.11,20Zm-30.4-3.66c3.4,0,5.28,3.08,5.28,6.21,0,3.61-2.45,4.82-5.7,4.82h-3.81v-11Zm4.3-7v0c0,3.47-1.89,5.14-5.36,5.17l-3.17,0v-10h2.87C320.37,4.63,323,6,323,9.35Zm.57,6.12a5.76,5.76,0,0,0,4.49-5.74c0-4.23-3.7-6.91-7.7-6.91h-11V29.26h11.48c4.53,0,8.23-2.46,8.23-7.27C329.09,18.6,326.75,16.26,323.58,15.47Zm-29,1.1v0c0-3.09-2.64-5-5.55-5H281.5V29.3h3.74V13h1.85a3.49,3.49,0,0,1,3.7,3.58,3.56,3.56,0,0,1-3.47,3.86,3.25,3.25,0,0,1-.53-.12l4.46,9h4.34l-4.76-8.62C292.83,20,294.57,18.87,294.57,16.57Zm-24.29-2.69a4.67,4.67,0,0,1,.19-.71,9.5,9.5,0,0,1,2.95-.34c1.58,0,3.17.19,4.76.19v-1.4h-8.31c-2.31,0-3.29,1-3.29,3.28l0,11.3c0,1.85.87,3.06,2.8,3.06h9.37V27.9h-7c-.75,0-1.44-.34-1.44-1.17l0-5.71h6.54V19.29h-6.54ZM261.33,13h3.55v-1.4H254V13h3.59V29.3h3.74Zm-10,14.8a1.39,1.39,0,0,1-.22-.53L251.13.1h-3.77V26.39c0,1.88.37,2.87,2.49,2.87h4.27V27.9A19.25,19.25,0,0,1,251.28,27.82ZM235.84,13.73l.34.08c.79,1.36,2,6.49,2.49,8.35h-5.55c.49-1.78,1.66-6.95,2.41-8.28Zm.94-2.53v0c-2.12,0-2.91,1.4-3.4,3.22l-4,14.88h1.77l1.4-5.29h6.65l1.51,5.29h4L240.22,14.6C239.61,12.6,239.23,11.2,236.78,11.2Zm-21.95,2.46-2.6,6.64L205.66,2.82h-5.18l10.24,27.27L216,16.79,221,30h.23l10.65-27.2h-2.46L222.8,20.15,216.16,2.82h-5.33Z"/><path class="cls-3" d="M377.54,43.3a3.93,3.93,0,1,0,3.93,3.93,3.93,3.93,0,0,0-3.93-3.93M403.44,56l-9.06,11.5V39.9l-6.46-.13V82.1h6.45l.1-10.33,8.28,10.33h8.37L399.48,67.35l9-11.32ZM374.23,82.1h6.51V56h-6.51Zm-23.87-26-.45.05-.43.1-.42.13-.39.17-.36.21L348,57l-.31.27-.28.31-.25.33-.21.36-.18.39-.13.41-.1.43-.06.46,0,.45-.06,21.74H350V63.58l0-.58,0-.51,0-.43v0l.15.13.36.38L351,63l.43.56.46.64.49.7.51.77.52.82.55.86.55.9.57.93.57,1,.58,1,.59,1,.58,1,.59,1,.58,1,.58.92.57.9.57.86.55.81.54.77.53.7.51.64.5.57.48.5.47.41.47.32.49.22.5.09.66-.1.53-.29.39-.41.27-.49.16-.5.1-.51.05-.49V56h-3.75v2.22l0,.47,0,.5v.5l0,.53,0,.54,0,.55,0,.56,0,.57V63l0,.58,0,.58v.57l0,.58v2.77l0,.52,0,.5,0,.48,0,.46,0,.43-.05.41,0,.21-.19-.25-.3-.41-.3-.4-.29-.4-.29-.41-.28-.41-.29-.41-.28-.42-.28-.41-.27-.42-.28-.42-.27-.42-.29-.45-.53-.82-.28-.43-.27-.42-.27-.43-.27-.42-.28-.43-.27-.43-.27-.42-.28-.43-.28-.42-.28-.43-.28-.42-.28-.42-.28-.42-.29-.42-.29-.42-.2-.27-.21-.27-.22-.26-.23-.24-.25-.24-.26-.22-.27-.21-.28-.19-.3-.17-.3-.16-.32-.14-.34-.11-.34-.09-.36-.07-.36,0h-.38Zm-16.93,9.62h-8.18V39.78h-6.41V82.1h6.41V69.41h8.18V82.1h6.41V55.92h-6.41Zm-26.81,14h-.48l-.45,0-.44-.07-.41-.1-.39-.13-.37-.15-.35-.17-.33-.19-.32-.22-.29-.24-.28-.25-.27-.28-.25-.3-.24-.31-.22-.33-.2-.35-.19-.36-.18-.37-.16-.38-.15-.4-.14-.41-.12-.41-.11-.42-.09-.43-.09-.44-.07-.43L300,72l-.05-.44,0-.44,0-.43V68.5l0-.46,0-.47,0-.47.05-.48.05-.48.06-.49.08-.48.09-.48.09-.47.12-.47.12-.45.15-.45.15-.43.18-.42.18-.4.21-.39.22-.36.24-.34.26-.32.28-.29.29-.27.32-.24.33-.21.36-.19.39-.15.41-.13.44-.09.47,0,.51,0,.53,0,.53,0,.5.1.49.13.47.17.45.2.44.24.41.26.4.3.38.33.36.35.35.38.32.41.3.44.28.46.52,1,3.33-1.66-.62-.87-.24-.32-.25-.32-.25-.31-.25-.29-.26-.3-.26-.28-.27-.27-.28-.26-.28-.25-.28-.25-.29-.23-.3-.22-.3-.22-.31-.2-.31-.19-.32-.18-.33-.17-.33-.16-.34-.15-.35-.14-.35-.13-.36-.11-.37-.1-.38-.09-.38-.08-.39-.07-.39,0-.41-.05-.41,0-.42,0h-.43l-.68,0-.68.05-.66.09-.66.12-.63.16-.63.19-.61.22-.59.25-.57.28-.56.3-.54.34-.52.36-.5.38-.49.41-.46.43-.44.45-.42.48-.39.49-.37.52-.35.53-.33.55-.3.56-.27.58-.25.6-.22.61L293,65l-.17.63-.14.64-.1.65-.08.66-.05.66v1.39l0,.7.08.7.1.68.13.66L293,73l.19.64.21.63.23.61.27.6.29.57.31.56.35.54.36.53.39.5.42.47.43.46.47.43.48.41.51.39.53.35L299,81l.57.31.59.27.62.25.63.21.65.18.67.16.69.12.7.08.72,0,.74,0H306l.43,0,.44,0,.42-.05.42-.07.41-.08.41-.09.4-.11.39-.12.39-.13.37-.15.37-.16.37-.17.35-.19.35-.19.34-.21.33-.23.33-.23.32-.25.31-.25.3-.27.29-.28.28-.29.28-.3.27-.31.26-.32.25-.33.25-.34.23-.35.23-.37.22-.36.54-1-3.14-1.13-.55.87-.31.48-.32.46-.33.44-.35.43-.36.41-.38.38-.39.35-.4.32-.43.29-.44.25-.46.21-.48.17-.5.13-.53.07ZM279,59.45l.05-.15,0-.07.18,0,.24-.06.24-.05.25,0,.24,0,.25,0,.25,0,.25,0,.26,0H284l.42,0,.41,0,.42,0,.42,0,.42,0,.42,0,.42,0,.42,0,.42,0,.43,0H290V56h-12.9l-.58.06-.55.09-.51.13-.48.17-.44.22-.4.27-.36.31-.31.36-.27.4-.22.44-.17.47-.13.52-.09.54-.05.59,0,.61-.05,16v.5l.05.5.08.47.11.45.15.44.19.4.23.38.26.35.31.31.34.28.38.24.42.2.45.15L276,82l.5.06.53,0h13.79V79H280.33L280,79l-.29,0-.26-.09-.2-.12-.16-.14L279,78.4l-.08-.22,0-.3.05-7.46h9.22V66.84h-9.22V59.7l0-.12Zm-13.77-.32h5V56H253.76v3.1h5.06v23h6.41ZM232.36,56.2l-.41.13-.39.17-.37.21-.34.24-.31.27-.28.31-.24.33-.22.36-.17.39-.14.41-.1.43-.06.46,0,.45-.05,21.74h3.64V64.91l0-.7V63l0-.51,0-.43v0l.16.13.36.38.4.48.44.56.46.64.49.7.5.77.53.82.54.86.56.9.56.93.58,1,.58,1,.58,1,.59,1,.58,1,.59,1,.58.92.57.9.56.86.56.81.54.77.53.7.51.64.49.57.49.5.47.41.47.32.48.22.51.09.65-.1.54-.29.39-.41.26-.49.17-.5.1-.51.05-.49V56h-3.75V57.8l0,.45v.47l0,.5,0,.5,0,.53,0,.6,0,1,0,.57,0,.57,0,.58,0,.58v3.92l0,.52,0,.5,0,.48,0,.46-.05.43,0,.41,0,.21-.2-.25-.3-.4-.29-.41-.29-.4-.29-.41-.29-.41-.28-.41-.28-.42-.28-.41-.28-.42-.27-.42-.28-.42-.27-.43-.28-.42-.27-.42-.27-.43-.27-.42-.27-.43-.28-.42-.27-.43-.27-.43-.28-.42-.27-.43-.28-.42-.28-.43-.28-.42L239.2,60l-.29-.42-.28-.42-.3-.42-.19-.27-.21-.27-.22-.26-.24-.24-.24-.24-.26-.22L236.7,57l-.28-.19-.3-.17-.31-.16-.32-.14-.33-.11-.35-.09-.35-.07-.37,0h-.38l-.46,0-.45.05Zm-16,9.47h-8.19V39.78h-6.4V82.1h6.4V69.41h8.19V82.1h6.41V55.92h-6.41Zm-29.85-2.36.12.41.12.43.13.43L187,65l.12.44.12.44.12.45.13.51.22.81.11.43.1.42.11.4.1.4.1.38.1.37.09.35.08.33,0,.14h-6.35l0-.12.09-.32.08-.34.1-.36.09-.38.1-.39.1-.41.11-.42.21-.84.12-.45.11-.45.12-.44.12-.44.12-.44.12-.44.12-.43.12-.42.12-.42.11-.4.12-.39.12-.37.12-.36.11-.33.11-.31.11-.29.1-.26.1-.24.1-.2h0l.08,0h0l.08.16.11.24.1.26.12.29.11.32.12.33.12.36.12.37.12.39Zm.68-7.85v-.1l-1.16,0-.55.08-.51.12-.48.17L184,56l-.4.26-.37.3-.33.33-.3.36-.27.38-.23.41-.22.43-.18.45-.18.46-.15.47-.14.49L175.35,82H179l2-7.45h8.51L191.64,82h6.78L192,60.64l-.16-.52-.15-.51-.16-.48-.17-.47-.19-.45-.2-.43-.24-.41-.27-.38-.31-.35-.36-.31-.41-.27-.45-.22-.5-.18-.55-.12-.61-.07Zm-12.94,23H154.29l20.78-34.83H144.84V47.2H163L142.34,82h31.87Z"/><path class="cls-2" d="M452,79.21V67.49h1.55V72.3h6.1V67.49h1.55V79.21h-1.55V73.69h-6.1v5.52Zm-8-4.31a4.5,4.5,0,0,0,.41,2.21,2.07,2.07,0,0,0,3.48.29,3.7,3.7,0,0,0,.69-2.44,3.87,3.87,0,0,0-.66-2.46,2,2,0,0,0-3.23,0A3.6,3.6,0,0,0,444,74.9Zm0,4.31h-1.34V67.49h1.44v4.18a2.85,2.85,0,0,1,2.33-1.14,3.57,3.57,0,0,1,1.48.31,3,3,0,0,1,1.15.89,4.28,4.28,0,0,1,.71,1.38,5.75,5.75,0,0,1,.26,1.73A4.82,4.82,0,0,1,449,78.21a3.38,3.38,0,0,1-2.59,1.2A2.69,2.69,0,0,1,444,78.15Zm-15,0V70.72h1.29v1.19a3,3,0,0,1,2.57-1.38,2.81,2.81,0,0,1,1.55.39,2.06,2.06,0,0,1,.85,1.09,3.06,3.06,0,0,1,2.63-1.48,2.56,2.56,0,0,1,1.94.7,3,3,0,0,1,.68,2.15v5.83H439.1V73.86a4,4,0,0,0-.14-1.24,1.26,1.26,0,0,0-.51-.61,1.52,1.52,0,0,0-.86-.24,2,2,0,0,0-1.49.6,2.6,2.6,0,0,0-.59,1.91v4.93h-1.44V73.7a2.4,2.4,0,0,0-.36-1.45,1.32,1.32,0,0,0-1.15-.48,2,2,0,0,0-1.12.33,1.79,1.79,0,0,0-.75.93,5.4,5.4,0,0,0-.23,1.78v4.4ZM422,74.61V73.24h5v4.35A8.47,8.47,0,0,1,424.56,79a7,7,0,0,1-2.5.46,6.58,6.58,0,0,1-3.14-.74,4.87,4.87,0,0,1-2.13-2.13,6.77,6.77,0,0,1-.72-3.13,7.35,7.35,0,0,1,.71-3.2A4.87,4.87,0,0,1,418.84,68a6.59,6.59,0,0,1,3.1-.71,6,6,0,0,1,2.3.41,3.73,3.73,0,0,1,1.61,1.15,5.19,5.19,0,0,1,.89,1.92l-1.4.38a4.42,4.42,0,0,0-.66-1.41,2.7,2.7,0,0,0-1.12-.82,4.16,4.16,0,0,0-1.61-.31,4.65,4.65,0,0,0-1.84.33,3.42,3.42,0,0,0-1.26.85,4.31,4.31,0,0,0-.74,1.16,6.27,6.27,0,0,0-.44,2.36,5.68,5.68,0,0,0,.54,2.62,3.41,3.41,0,0,0,1.57,1.57A4.9,4.9,0,0,0,422,78a5.21,5.21,0,0,0,2-.4,4.91,4.91,0,0,0,1.45-.82V74.61Z"/></g></g></svg>